<svg width="32" height="32" viewBox="0 0 32 32" fill="none" xmlns="http://www.w3.org/2000/svg">
  <defs>
    <linearGradient id="gradient" x1="0%" y1="0%" x2="100%" y2="100%">
      <stop offset="0%" style="stop-color:#16a085;stop-opacity:1" />
      <stop offset="100%" style="stop-color:#1dd1a1;stop-opacity:1" />
    </linearGradient>
  </defs>
  
  <!-- Background Circle -->
  <circle cx="16" cy="16" r="16" fill="url(#gradient)"/>
  
  <!-- Briefcase Icon -->
  <path d="M24 12.5C24 11.6716 23.3284 11 22.5 11H20V9.5C20 8.11929 18.8807 7 17.5 7H14.5C13.1193 7 12 8.11929 12 9.5V11H9.5C8.67157 11 8 11.6716 8 12.5V22.5C8 23.3284 8.67157 24 9.5 24H22.5C23.3284 24 24 23.3284 24 22.5V12.5Z" stroke="white" stroke-width="1.5" fill="none"/>
  <path d="M12 11V9.5C12 8.11929 13.1193 7 14.5 7H17.5C18.8807 7 20 8.11929 20 9.5V11" stroke="white" stroke-width="1.5" fill="none"/>
  <path d="M8 15H24" stroke="white" stroke-width="1.5" fill="none"/>
  
  <!-- X mark overlay -->
  <circle cx="22" cy="10" r="6" fill="#138f7a"/>
  <path d="M19 7L25 13M25 7L19 13" stroke="white" stroke-width="1.5" stroke-linecap="round"/>
</svg> 